<svg xmlns="http://www.w3.org/2000/svg" width="800" height="600" viewBox="0 0 800 600">
  <defs>
    <linearGradient id="bg" x1="0" y1="0" x2="0" y2="1">
      <stop offset="0%" stop-color="#fafafa"/>
      <stop offset="100%" stop-color="#f0f0f5"/>
    </linearGradient>
    <linearGradient id="rose" x1="0" y1="0" x2="1" y2="1">
      <stop offset="0%" stop-color="#e11d48"/>
      <stop offset="100%" stop-color="#f43f5e"/>
    </linearGradient>
    <linearGradient id="card" x1="0" y1="0" x2="0" y2="1">
      <stop offset="0%" stop-color="#ffffff"/>
      <stop offset="100%" stop-color="#f8f8fc"/>
    </linearGradient>
  </defs>
  <rect width="800" height="600" fill="url(#bg)"/>
  <circle cx="680" cy="60" r="200" fill="#e11d48" opacity="0.04"/>
  <circle cx="120" cy="540" r="150" fill="#f43f5e" opacity="0.03"/>
  <rect x="40" y="40" width="720" height="180" rx="20" fill="url(#card)" stroke="#e8e8f0" stroke-width="1"/>
  <rect x="60" y="60" width="80" height="28" rx="14" fill="url(#rose)"/>
  <text x="72" y="79" fill="#fff" font-family="'Plus Jakarta Sans',sans-serif" font-size="10" font-weight="600">POCKET</text>
  <text x="60" y="140" fill="#0a0a1a" font-family="'Plus Jakarta Sans',sans-serif" font-size="40" font-weight="800" letter-spacing="-1">Cepte Yeni Bir Dunya</text>
  <text x="60" y="172" fill="#6a6a7a" font-family="'Plus Jakarta Sans',sans-serif" font-size="14">Hedeflerine ulasmak icin ihtiyacin olan her sey bir tik uza&#287;inda.</text>
  <a href="*">
    <rect x="60" y="196" width="100" height="36" rx="18" fill="url(#rose)"/>
    <text x="78" y="219" fill="#fff" font-family="'Plus Jakarta Sans',sans-serif" font-size="12" font-weight="600">Indir</text>
  </a>
  <rect x="460" y="140" width="280" height="60" rx="16" fill="#1a1a2e"/>
  <text x="480" y="166" fill="#fff" font-family="'Plus Jakarta Sans',sans-serif" font-size="11" font-weight="500">App Store'da</text>
  <text x="480" y="182" fill="#6a6a8a" font-family="'Plus Jakarta Sans',sans-serif" font-size="9">Yakinda</text>
  <rect x="460" y="210" width="280" height="60" rx="16" fill="#1a1a2e" stroke="#e11d48" stroke-width="1.5"/>
  <text x="480" y="236" fill="#fff" font-family="'Plus Jakarta Sans',sans-serif" font-size="11" font-weight="500">Google Play'de</text>
  <text x="480" y="252" fill="#6a6a8a" font-family="'Plus Jakarta Sans',sans-serif" font-size="9">Yakinda</text>
  <rect x="60" y="280" width="220" height="140" rx="16" fill="url(#card)" stroke="#e8e8f0" stroke-width="1"/>
  <circle cx="110" cy="320" r="20" fill="#fce4ec"/>
  <path d="M102 320 L108 326 L118 314" stroke="#e11d48" stroke-width="2.5" fill="none" stroke-linecap="round" stroke-linejoin="round"/>
  <text x="148" y="316" fill="#0a0a1a" font-family="'Plus Jakarta Sans',sans-serif" font-size="15" font-weight="700">Basit Arayuz</text>
  <text x="78" y="370" fill="#6a6a7a" font-family="'Plus Jakarta Sans',sans-serif" font-size="11">Karmasikliktan uzak,</text>
  <text x="78" y="388" fill="#6a6a7a" font-family="'Plus Jakarta Sans',sans-serif" font-size="11">kullanimi kolay tasarim.</text>
  <rect x="300" y="280" width="220" height="140" rx="16" fill="url(#card)" stroke="#e8e8f0" stroke-width="1"/>
  <circle cx="350" cy="320" r="20" fill="#fce4ec"/>
  <path d="M340 320 L346 326 L360 312" stroke="#e11d48" stroke-width="2.5" fill="none" stroke-linecap="round" stroke-linejoin="round"/>
  <text x="388" y="316" fill="#0a0a1a" font-family="'Plus Jakarta Sans',sans-serif" font-size="15" font-weight="700">Hizli ve Guvenli</text>
  <text x="318" y="370" fill="#6a6a7a" font-family="'Plus Jakarta Sans',sans-serif" font-size="11">Verileriniz sifrelenir,</text>
  <text x="318" y="388" fill="#6a6a7a" font-family="'Plus Jakarta Sans',sans-serif" font-size="11">islemleriniz guvende.</text>
  <rect x="540" y="280" width="220" height="140" rx="16" fill="url(#card)" stroke="#e8e8f0" stroke-width="1"/>
  <circle cx="590" cy="320" r="20" fill="#fce4ec"/>
  <path d="M580 320 L586 326 L600 312" stroke="#e11d48" stroke-width="2.5" fill="none" stroke-linecap="round" stroke-linejoin="round"/>
  <text x="628" y="316" fill="#0a0a1a" font-family="'Plus Jakarta Sans',sans-serif" font-size="15" font-weight="700">Akilli Oneriler</text>
  <text x="558" y="370" fill="#6a6a7a" font-family="'Plus Jakarta Sans',sans-serif" font-size="11">Yapay zeka destekli</text>
  <text x="558" y="388" fill="#6a6a7a" font-family="'Plus Jakarta Sans',sans-serif" font-size="11">kisisellestirilmis deneyim.</text>
  <rect x="60" y="440" width="340" height="80" rx="16" fill="#1a1a2e"/>
  <text x="80" y="474" fill="#fff" font-family="'Plus Jakarta Sans',sans-serif" font-size="16" font-weight="700">100.000+ Indirme</text>
  <text x="80" y="498" fill="#6a6a8a" font-family="'Plus Jakarta Sans',sans-serif" font-size="11">Kullanicilar tarafindan en cok tercih edilen uygulama</text>
  <rect x="420" y="440" width="340" height="80" rx="16" fill="url(#card)" stroke="#e8e8f0" stroke-width="1"/>
  <text x="440" y="474" fill="#0a0a1a" font-family="'Plus Jakarta Sans',sans-serif" font-size="14" font-weight="700">Hemen katil, farki hisset</text>
  <text x="440" y="498" fill="#e11d48" font-family="'Plus Jakarta Sans',sans-serif" font-size="11" font-weight="600">Ucretsiz dene &#8594;</text>
  <text x="40" y="580" fill="#8a8a9a" font-family="'Plus Jakarta Sans',sans-serif" font-size="9" font-weight="500">Pocket &#8226; Mobil Uygulama</text>
</svg>
