<svg xmlns="http://www.w3.org/2000/svg" width="1280" height="960" viewBox="0 0 1280 960">
  <defs>
    <filter id="noise">
      <feTurbulence type="fractalNoise" baseFrequency="0.65" numOctaves="3" stitchTiles="stitch"/>
      <feColorMatrix type="saturate" values="0"/>
      <feBlend in="SourceGraphic" in2="noiseOut" mode="multiply"/>
    </filter>
  </defs>
  <rect width="1280" height="960" fill="#f5f0eb"/>
  <rect width="1280" height="960" fill="url(#noise)" opacity="0.03"/>
  <rect x="0" y="0" width="1280" height="80" fill="rgba(255,255,255,0.85)"/>
  <rect x="0" y="80" width="1280" height="0.5" fill="rgba(0,0,0,0.06)"/>
  <rect x="60" y="24" width="32" height="32" rx="6" fill="#2d2d2d"/>
  <text x="640" y="45" text-anchor="middle" font-family="'Playfair Display','Lyon Text',Georgia,serif" font-size="18" font-weight="600" fill="#1a1a1a" letter-spacing="1">Maison Blanche</text>
  <rect x="1050" y="28" width="90" height="24" rx="4" fill="rgba(0,0,0,0.04)"/>
  <rect x="340" y="140" width="600" height="680" rx="2" fill="#ffffff" stroke="rgba(0,0,0,0.06)" stroke-width="0.5"/>
  <rect x="590" y="155" width="100" height="4" rx="2" fill="#e0d8d0"/>
  <rect x="360" y="175" width="560" height="0.5" fill="rgba(0,0,0,0.06)"/>
  <text x="640" y="210" text-anchor="middle" font-family="'Playfair Display',Georgia,serif" font-size="24" font-weight="600" fill="#1a1a1a">Maison Blanche</text>
  <text x="640" y="230" text-anchor="middle" font-family="'Satoshi','Geist',sans-serif" font-size="12" fill="#8a7f75">Mutfak sanatına davet</text>
  <rect x="380" y="260" width="520" height="1" fill="rgba(0,0,0,0.06)"/>
  <rect x="380" y="280" width="520" height="40" fill="#f5f0eb" rx="2"/>
  <text x="400" y="305" font-family="'Playfair Display',Georgia,serif" font-size="14" font-weight="600" fill="#1a1a1a">Entr&#233;es</text>
  <text x="888" y="305" font-family="'Satoshi',sans-serif" font-size="12" fill="#2d2d2d">3</text>
  <rect x="380" y="330" width="520" height="40" fill="rgba(45,45,45,0.04)" rx="2" stroke="#2d2d2d" stroke-width="0.5"/>
  <text x="400" y="355" font-family="'Playfair Display',Georgia,serif" font-size="14" font-weight="600" fill="#1a1a1a">Plats Principaux</text>
  <text x="888" y="355" font-family="'Satoshi',sans-serif" font-size="12" fill="#2d2d2d">5</text>
  <rect x="380" y="380" width="520" height="40" fill="#f5f0eb" rx="2"/>
  <text x="400" y="405" font-family="'Playfair Display',Georgia,serif" font-size="14" font-weight="600" fill="#1a1a1a">Salades</text>
  <text x="888" y="405" font-family="'Satoshi',sans-serif" font-size="12" fill="#2d2d2d">3</text>
  <rect x="380" y="430" width="520" height="40" fill="#f5f0eb" rx="2"/>
  <text x="400" y="455" font-family="'Playfair Display',Georgia,serif" font-size="14" font-weight="600" fill="#1a1a1a">Fromages</text>
  <text x="888" y="455" font-family="'Satoshi',sans-serif" font-size="12" fill="#2d2d2d">4</text>
  <rect x="380" y="500" width="520" height="1" fill="rgba(0,0,0,0.04)"/>
  <text x="640" y="870" text-anchor="middle" font-family="'Playfair Display',Georgia,serif" font-size="14" font-weight="600" fill="#1a1a1a">Maison Blanche &#8212; Mutfak Sanatına Davet</text>
  <text x="640" y="895" text-anchor="middle" font-family="'Satoshi',sans-serif" font-size="12" fill="#8a7f75">QR Menü &#8226; Fine Dining &#8226; Responsive</text>
</svg>